<?xml version="1.0" encoding="UTF-8"?>
<!DOCTYPE svg PUBLIC "-//W3C//DTD SVG 1.1//EN" "http://www.w3.org/Graphics/SVG/1.1/DTD/svg11.dtd">
<svg xmlns="http://www.w3.org/2000/svg" version="1.1" width="481px" height="519px" style="shape-rendering:geometricPrecision; text-rendering:geometricPrecision; image-rendering:optimizeQuality; fill-rule:evenodd; clip-rule:evenodd" xmlns:xlink="http://www.w3.org/1999/xlink">
<g><path style="opacity:0.993" fill="#9b9b9b" d="M 228.5,56.5 C 293.847,54.9764 346.68,79.6431 387,130.5C 426.5,187.345 433.5,248.012 408,312.5C 377.194,377.338 326.027,413.838 254.5,422C 188.574,425.443 135.074,401.609 94,350.5C 48.0125,283.627 44.6792,214.627 84,143.5C 118.242,91.6191 166.408,62.6191 228.5,56.5 Z M 225.5,81.5 C 283.69,78.5255 330.856,99.5255 367,144.5C 400.13,191.467 407.13,242.134 388,296.5C 359.895,360.915 310.562,394.915 240,398.5C 169.438,394.915 120.105,360.915 92,296.5C 71.4765,236.966 81.1432,182.966 121,134.5C 149.351,104.241 184.184,86.5739 225.5,81.5 Z"/></g>
<g><path style="opacity:0.999" fill="#9a9a9a" d="M 182.5,148.5 C 192.056,148.306 201.056,150.472 209.5,155C 244.336,175.586 279.336,195.919 314.5,216C 330.981,229.017 333.147,243.851 321,260.5C 316.101,264.699 310.934,268.532 305.5,272C 274.575,289.267 243.908,306.934 213.5,325C 203.82,331.753 193.154,334.42 181.5,333C 168.264,328.742 161.097,319.575 160,305.5C 159.333,262.5 159.333,219.5 160,176.5C 161.586,162.11 169.086,152.777 182.5,148.5 Z"/></g>
</svg>
